<?xml version="1.0" encoding="utf-8"?>
<!-- Generator: Adobe Illustrator 23.0.3, SVG Export Plug-In . SVG Version: 6.00 Build 0)  -->
<svg version="1.1" id="Capa_1" xmlns="http://www.w3.org/2000/svg" xmlns:xlink="http://www.w3.org/1999/xlink" x="0px" y="0px"
	 viewBox="0 0 512 512" style="enable-background:new 0 0 512 512;" xml:space="preserve">
<style type="text/css">
	.st0{fill:#D2D3D5;}
</style>
<g>
	<g>
		<g>
			<path class="st0" d="M256,0C114.8,0,0,114.8,0,256c0,141.1,114.8,256,256,256c141.1,0,256-114.9,256-256C512,114.8,397.2,0,256,0
				z M319.7,265H278v148.4h-61.7c0,0,0-81.1,0-148.4H187v-52.5h29.3v-33.9c0-24.3,11.5-62.3,62.3-62.3l45.7,0.2v50.9
				c0,0-27.8,0-33.2,0c-5.4,0-13.1,2.7-13.1,14.3v30.8h47L319.7,265z"/>
		</g>
	</g>
</g>
</svg>
