<svg xmlns="http://www.w3.org/2000/svg" viewBox="0 0 26.14941 23.95654"><defs><style>.cls-1{fill:#939598;}</style></defs><title>Asset 6</title><g id="Layer_2" data-name="Layer 2"><g id="Layer_1-2" data-name="Layer 1"><path class="cls-1" d="M0,0V23.95654H26.14941V0ZM25.64941,23.45654H.5V5.41724H25.64941ZM.5,4.91724V.5H25.64941V4.91724Z"/><path class="cls-1" d="M2.83594,2.0083a.88318.88318,0,1,0,.88281.88306A.884.884,0,0,0,2.83594,2.0083Zm0,1.26636a.38318.38318,0,1,1,.38281-.3833A.38354.38354,0,0,1,2.83594,3.27466Z"/><path class="cls-1" d="M5.18359,2.0083a.88318.88318,0,1,0,.8833.88306A.884.884,0,0,0,5.18359,2.0083Zm0,1.26636a.38318.38318,0,1,1,.3833-.3833A.38354.38354,0,0,1,5.18359,3.27466Z"/><path class="cls-1" d="M7.53174,2.0083a.88318.88318,0,1,0,.8833.88306A.8844.8844,0,0,0,7.53174,2.0083Zm0,1.26636a.38318.38318,0,1,1,.3833-.3833A.38364.38364,0,0,1,7.53174,3.27466Z"/><path class="cls-1" d="M5.55859,15.92505H4.09668v-1.427h6.49414v1.427H8.97949V19.648h3.72266v-3.7229H11.09082v-3.2544h1.61133V8.948H8.97949v3.72265h1.61133v1.3274H3.59668v1.927H1.83594V19.648H5.55859Zm6.64356,3.2229H9.47949v-2.7229h2.72266Zm-2.72266-9.7h2.72266v2.72265H9.47949Zm-4.4209,9.7H2.33594v-2.7229H5.05859Z"/><path class="cls-1" d="M16.81836,19.648H23.5127V10.51074H21.35938a2.43243,2.43243,0,0,0-4.83008,0H14.37549V19.648h2.44287Zm0-.5V16.18579L19.78027,19.148Zm6.19434,0H20.4873l-1.311-1.311,3.83643-3.83642ZM18.94434,8.86865a1.93521,1.93521,0,0,1,1.94482,1.89844h.00244v.04932a1.93385,1.93385,0,0,1-.12549.68994l-.022.05493c-.06641.145-1.04394,1.82715-1.7998,3.11963-.75586-1.29273-1.7334-2.97461-1.79786-3.11328L17.124,11.51a1.95228,1.95228,0,0,1-.12451-.74268v-.00024A1.93521,1.93521,0,0,1,18.94434,8.86865Zm-4.06885,2.14209h1.62842c.00244.02539.01416.04932.01709.07471a2.44019,2.44019,0,0,0,.1372.606l.02539.06494c.07422.17749,1.584,2.75879,2.04493,3.5459l.21582.36816.21582-.36816c.46093-.78711,1.9707-3.36866,2.04589-3.54956l.02588-.0647a2.38242,2.38242,0,0,0,.13184-.59986c.00293-.02758.01514-.04882.01709-.07739H23.0127v2.28272L18.82275,17.4834l-2.00439-2.00464-1.94287-1.94263Zm0,8.13721V14.24316l1.44287,1.44263V19.148Z"/><path class="cls-1" d="M18.94434,12.24731a1.3702,1.3702,0,0,0,.53418-.104c.01171-.00464.02539-.00659.03711-.01147a1.48285,1.48285,0,0,0,.90234-1.3711h0l-.499.01221a1.08271,1.08271,0,1,1-.001-.00977l.25-.00244h.25V10.7583h0v-.00708h-.00049a1.47374,1.47374,0,0,0-2.94727.00708l.42872.00415-.4292.0105A1.47621,1.47621,0,0,0,18.94434,12.24731Z"/></g></g></svg>