<svg xmlns="http://www.w3.org/2000/svg" viewBox="0 0 26.14941 23.9563"><defs><style>.cls-1{fill:#939598;}</style></defs><title>Asset 5</title><g id="Layer_2" data-name="Layer 2"><g id="Layer_1-2" data-name="Layer 1"><path class="cls-1" d="M0,0V23.9563H26.14941V0ZM25.64941,23.4563H.5V5.41724H25.64941ZM.5,4.91724V.5H25.64941V4.91724Z"/><path class="cls-1" d="M2.83594,2.00806a.88318.88318,0,1,0,.88281.8833A.884.884,0,0,0,2.83594,2.00806Zm0,1.26635a.38318.38318,0,1,1,.38281-.383A.38348.38348,0,0,1,2.83594,3.27441Z"/><path class="cls-1" d="M5.18359,2.00806a.88318.88318,0,1,0,.8833.8833A.884.884,0,0,0,5.18359,2.00806Zm0,1.26635a.38318.38318,0,1,1,.3833-.383A.38348.38348,0,0,1,5.18359,3.27441Z"/><path class="cls-1" d="M7.53174,2.00806a.88318.88318,0,1,0,.8833.8833A.88445.88445,0,0,0,7.53174,2.00806Zm0,1.26635a.38318.38318,0,1,1,.3833-.383A.38358.38358,0,0,1,7.53174,3.27441Z"/><path class="cls-1" d="M7.793,16.18018H6.33105v-1.427h6.49317v1.427H11.21289v3.7229H14.936v-3.7229H13.32422v-1.427h6.49414v1.427H18.35645v3.7229H22.0791v-3.7229H20.31836v-1.927H13.32422V12.92578H14.936V9.20313H11.21289v3.72265h1.61133v1.32739H5.83105v1.927H4.06982v3.7229H7.793Zm6.64307,3.2229H11.71289v-2.7229H14.436Zm7.14306,0H18.85645v-2.7229H21.5791ZM11.71289,9.70313H14.436v2.72265H11.71289Zm-4.41992,9.7H4.56982v-2.7229H7.293Z"/></g></g></svg>