<svg xmlns="http://www.w3.org/2000/svg" viewBox="0 0 26.1499 23.95703"><defs><style>.cls-1{fill:#939598;}</style></defs><title>Asset 4</title><g id="Layer_2" data-name="Layer 2"><g id="Layer_1-2" data-name="Layer 1"><path class="cls-1" d="M0,0V23.957H26.1499V0ZM25.6499.5V4.91748H.5V.5ZM.5,23.457V5.41748H25.6499V23.457Z"/><path class="cls-1" d="M2.83594,3.77466a.88318.88318,0,1,0-.88281-.88306A.88409.88409,0,0,0,2.83594,3.77466Zm0-1.26636a.38318.38318,0,1,1-.38281.3833A.38365.38365,0,0,1,2.83594,2.5083Z"/><path class="cls-1" d="M5.18359,3.77466a.88318.88318,0,1,0-.88281-.88306A.8845.8845,0,0,0,5.18359,3.77466Zm0-1.26636a.38318.38318,0,1,1-.38281.3833A.38375.38375,0,0,1,5.18359,2.5083Z"/><path class="cls-1" d="M7.53174,3.77466a.88318.88318,0,1,0-.8833-.88306A.8844.8844,0,0,0,7.53174,3.77466Zm0-1.26636a.38318.38318,0,1,1-.3833.3833A.38365.38365,0,0,1,7.53174,2.5083Z"/><path class="cls-1" d="M13.09717,7.33716A3.02608,3.02608,0,0,0,10.07422,10.073H7.33154V21.60352H18.8623V10.073H16.12012A3.02609,3.02609,0,0,0,13.09717,7.33716Zm0,.5a2.54082,2.54082,0,0,1,2.55322,2.49219l.00342-.00025V10.394a2.54191,2.54191,0,0,1-.16553.90674l-.0293.073c-.0791.176-1.38378,2.42041-2.36181,4.09277-.978-1.67236-2.28272-3.91626-2.35987-4.08691l-.02978-.07544a2.546,2.546,0,0,1-.16553-.93335l.002-.04.00048-.00195A2.53983,2.53983,0,0,1,13.09717,7.83716ZM9.8125,21.10352h-1.981V14.60327L9.8125,16.584Zm.5,0V17.084L14.332,21.10352Zm8.0498,0H15.03906l-1.74365-1.74341L18.3623,14.293Zm0-7.51758-5.42041,5.42065L10.3125,16.377h0l-.24414-.24389L9.8125,15.877l-.99023-.99023-.99073-.99048V10.573H10.0459c.00488.08423.02148.16626.0332.24927.00781.05517.01172.11059.02246.165a3.09742,3.09742,0,0,0,.13965.49805l.0332.08252c.09473.22827,2.18848,3.80518,2.60694,4.52l.21582.36816.21582-.36816c.41846-.71484,2.51172-4.29175,2.6084-4.52368l.03271-.08179a3.02323,3.02323,0,0,0,.13867-.4956c.01075-.0542.01465-.10987.02246-.1648.01172-.083.02832-.16479.03321-.249H18.3623Z"/><path class="cls-1" d="M13.09717,12.15234a1.81091,1.81091,0,0,0,.36426-.03686,1.71582,1.71582,0,0,0,.20459-.06372c.04443-.01465.09179-.02368.13476-.04175a1.82561,1.82561,0,0,0,1.10938-1.687h0l-.499.01538a1.41662,1.41662,0,1,1-.001-.01294l.25-.00244h.25v-.00244h0V10.312h-.001a1.81263,1.81263,0,0,0-3.625.00855l.43945.00415-.44043.01367A1.81584,1.81584,0,0,0,13.09717,12.15234Z"/></g></g></svg>